<mxfile host="app.diagrams.net" modified="2023-10-29T19:46:12.408Z" agent="Mozilla/5.0 (Windows NT 10.0; Win64; x64) AppleWebKit/537.36 (KHTML, like Gecko) Chrome/118.0.0.0 Safari/537.36" etag="UIBS07AIvtt7I0t_wARC" version="22.0.8" type="device">
  <diagram id="C5RBs43oDa-KdzZeNtuy" name="Page-1">
    <mxGraphModel dx="1434" dy="764" grid="1" gridSize="10" guides="1" tooltips="1" connect="1" arrows="1" fold="1" page="1" pageScale="1" pageWidth="827" pageHeight="1169" math="0" shadow="0">
      <root>
        <mxCell id="WIyWlLk6GJQsqaUBKTNV-0" />
        <mxCell id="WIyWlLk6GJQsqaUBKTNV-1" parent="WIyWlLk6GJQsqaUBKTNV-0" />
        <mxCell id="nSamTNei7Clb74Yu-_tP-12" value="True" style="edgeStyle=orthogonalEdgeStyle;rounded=0;orthogonalLoop=1;jettySize=auto;html=1;exitX=0;exitY=0.5;exitDx=0;exitDy=0;exitPerimeter=0;entryX=0;entryY=0.5;entryDx=0;entryDy=0;" parent="WIyWlLk6GJQsqaUBKTNV-1" source="nSamTNei7Clb74Yu-_tP-3" target="nSamTNei7Clb74Yu-_tP-8" edge="1">
          <mxGeometry relative="1" as="geometry">
            <mxPoint x="20" y="240" as="targetPoint" />
            <Array as="points">
              <mxPoint x="30" y="555" />
              <mxPoint x="30" y="240" />
            </Array>
          </mxGeometry>
        </mxCell>
        <mxCell id="nSamTNei7Clb74Yu-_tP-27" value="False" style="edgeStyle=orthogonalEdgeStyle;rounded=0;orthogonalLoop=1;jettySize=auto;html=1;exitX=0.5;exitY=1;exitDx=0;exitDy=0;exitPerimeter=0;" parent="WIyWlLk6GJQsqaUBKTNV-1" source="nSamTNei7Clb74Yu-_tP-3" edge="1">
          <mxGeometry relative="1" as="geometry">
            <mxPoint x="160" y="660" as="targetPoint" />
          </mxGeometry>
        </mxCell>
        <mxCell id="nSamTNei7Clb74Yu-_tP-3" value="while math grade is lover that 0 or higher 10" style="strokeWidth=2;html=1;shape=mxgraph.flowchart.decision;whiteSpace=wrap;" parent="WIyWlLk6GJQsqaUBKTNV-1" vertex="1">
          <mxGeometry x="80" y="490" width="160" height="130" as="geometry" />
        </mxCell>
        <mxCell id="nSamTNei7Clb74Yu-_tP-5" style="edgeStyle=orthogonalEdgeStyle;rounded=0;orthogonalLoop=1;jettySize=auto;html=1;exitX=0.5;exitY=1;exitDx=0;exitDy=0;" parent="WIyWlLk6GJQsqaUBKTNV-1" source="nSamTNei7Clb74Yu-_tP-4" edge="1">
          <mxGeometry relative="1" as="geometry">
            <mxPoint x="140" y="220" as="targetPoint" />
          </mxGeometry>
        </mxCell>
        <mxCell id="nSamTNei7Clb74Yu-_tP-4" value="Initialize variables" style="rounded=1;whiteSpace=wrap;html=1;absoluteArcSize=1;arcSize=14;strokeWidth=2;" parent="WIyWlLk6GJQsqaUBKTNV-1" vertex="1">
          <mxGeometry x="80" y="140" width="120" height="40" as="geometry" />
        </mxCell>
        <mxCell id="nSamTNei7Clb74Yu-_tP-7" style="edgeStyle=orthogonalEdgeStyle;rounded=0;orthogonalLoop=1;jettySize=auto;html=1;exitX=0.5;exitY=1;exitDx=0;exitDy=0;entryX=0.5;entryY=0;entryDx=0;entryDy=0;" parent="WIyWlLk6GJQsqaUBKTNV-1" source="nSamTNei7Clb74Yu-_tP-6" target="nSamTNei7Clb74Yu-_tP-4" edge="1">
          <mxGeometry relative="1" as="geometry" />
        </mxCell>
        <mxCell id="nSamTNei7Clb74Yu-_tP-6" value="Introduction" style="rounded=1;whiteSpace=wrap;html=1;absoluteArcSize=1;arcSize=14;strokeWidth=2;" parent="WIyWlLk6GJQsqaUBKTNV-1" vertex="1">
          <mxGeometry x="90" y="70" width="100" height="30" as="geometry" />
        </mxCell>
        <mxCell id="nSamTNei7Clb74Yu-_tP-9" style="edgeStyle=orthogonalEdgeStyle;rounded=0;orthogonalLoop=1;jettySize=auto;html=1;exitX=0.5;exitY=1;exitDx=0;exitDy=0;" parent="WIyWlLk6GJQsqaUBKTNV-1" source="nSamTNei7Clb74Yu-_tP-8" edge="1">
          <mxGeometry relative="1" as="geometry">
            <mxPoint x="140" y="280" as="targetPoint" />
          </mxGeometry>
        </mxCell>
        <mxCell id="nSamTNei7Clb74Yu-_tP-8" value="Do" style="rounded=1;whiteSpace=wrap;html=1;absoluteArcSize=1;arcSize=14;strokeWidth=2;" parent="WIyWlLk6GJQsqaUBKTNV-1" vertex="1">
          <mxGeometry x="120" y="220" width="40" height="40" as="geometry" />
        </mxCell>
        <mxCell id="nSamTNei7Clb74Yu-_tP-18" style="edgeStyle=orthogonalEdgeStyle;rounded=0;orthogonalLoop=1;jettySize=auto;html=1;exitX=0.5;exitY=1;exitDx=0;exitDy=0;entryX=0.5;entryY=0;entryDx=0;entryDy=0;" parent="WIyWlLk6GJQsqaUBKTNV-1" source="nSamTNei7Clb74Yu-_tP-10" target="nSamTNei7Clb74Yu-_tP-16" edge="1">
          <mxGeometry relative="1" as="geometry" />
        </mxCell>
        <mxCell id="nSamTNei7Clb74Yu-_tP-10" value="Enter Math grade message" style="rounded=1;whiteSpace=wrap;html=1;absoluteArcSize=1;arcSize=14;strokeWidth=2;" parent="WIyWlLk6GJQsqaUBKTNV-1" vertex="1">
          <mxGeometry x="70" y="280" width="140" height="30" as="geometry" />
        </mxCell>
        <mxCell id="nSamTNei7Clb74Yu-_tP-14" style="edgeStyle=orthogonalEdgeStyle;rounded=0;orthogonalLoop=1;jettySize=auto;html=1;exitX=0.5;exitY=1;exitDx=0;exitDy=0;exitPerimeter=0;" parent="WIyWlLk6GJQsqaUBKTNV-1" source="nSamTNei7Clb74Yu-_tP-3" target="nSamTNei7Clb74Yu-_tP-3" edge="1">
          <mxGeometry relative="1" as="geometry" />
        </mxCell>
        <mxCell id="nSamTNei7Clb74Yu-_tP-19" style="edgeStyle=orthogonalEdgeStyle;rounded=0;orthogonalLoop=1;jettySize=auto;html=1;exitX=0.5;exitY=1;exitDx=0;exitDy=0;entryX=0.5;entryY=0;entryDx=0;entryDy=0;" parent="WIyWlLk6GJQsqaUBKTNV-1" source="nSamTNei7Clb74Yu-_tP-16" target="nSamTNei7Clb74Yu-_tP-17" edge="1">
          <mxGeometry relative="1" as="geometry" />
        </mxCell>
        <mxCell id="nSamTNei7Clb74Yu-_tP-16" value="user enters grade" style="rounded=1;whiteSpace=wrap;html=1;absoluteArcSize=1;arcSize=14;strokeWidth=2;" parent="WIyWlLk6GJQsqaUBKTNV-1" vertex="1">
          <mxGeometry x="70" y="340" width="170" height="30" as="geometry" />
        </mxCell>
        <mxCell id="nSamTNei7Clb74Yu-_tP-24" value="false" style="edgeStyle=orthogonalEdgeStyle;rounded=0;orthogonalLoop=1;jettySize=auto;html=1;exitX=1;exitY=0.5;exitDx=0;exitDy=0;entryX=0.594;entryY=0;entryDx=0;entryDy=0;entryPerimeter=0;" parent="WIyWlLk6GJQsqaUBKTNV-1" source="nSamTNei7Clb74Yu-_tP-17" target="nSamTNei7Clb74Yu-_tP-23" edge="1">
          <mxGeometry relative="1" as="geometry" />
        </mxCell>
        <mxCell id="nSamTNei7Clb74Yu-_tP-25" value="true" style="edgeStyle=orthogonalEdgeStyle;rounded=0;orthogonalLoop=1;jettySize=auto;html=1;exitX=0.5;exitY=1;exitDx=0;exitDy=0;entryX=0.5;entryY=0;entryDx=0;entryDy=0;entryPerimeter=0;" parent="WIyWlLk6GJQsqaUBKTNV-1" source="nSamTNei7Clb74Yu-_tP-17" target="nSamTNei7Clb74Yu-_tP-3" edge="1">
          <mxGeometry relative="1" as="geometry" />
        </mxCell>
        <mxCell id="nSamTNei7Clb74Yu-_tP-17" value="checkes if grade is whitin paramets" style="rounded=1;whiteSpace=wrap;html=1;absoluteArcSize=1;arcSize=14;strokeWidth=2;" parent="WIyWlLk6GJQsqaUBKTNV-1" vertex="1">
          <mxGeometry x="60" y="400" width="200" height="30" as="geometry" />
        </mxCell>
        <mxCell id="nSamTNei7Clb74Yu-_tP-26" style="edgeStyle=orthogonalEdgeStyle;rounded=0;orthogonalLoop=1;jettySize=auto;html=1;exitX=0.75;exitY=1;exitDx=0;exitDy=0;entryX=1;entryY=0.5;entryDx=0;entryDy=0;entryPerimeter=0;" parent="WIyWlLk6GJQsqaUBKTNV-1" source="nSamTNei7Clb74Yu-_tP-23" target="nSamTNei7Clb74Yu-_tP-3" edge="1">
          <mxGeometry relative="1" as="geometry" />
        </mxCell>
        <mxCell id="nSamTNei7Clb74Yu-_tP-23" value="wrong input message" style="rounded=1;whiteSpace=wrap;html=1;absoluteArcSize=1;arcSize=14;strokeWidth=2;" parent="WIyWlLk6GJQsqaUBKTNV-1" vertex="1">
          <mxGeometry x="280" y="460" width="180" height="30" as="geometry" />
        </mxCell>
        <mxCell id="nSamTNei7Clb74Yu-_tP-45" value="True" style="edgeStyle=orthogonalEdgeStyle;rounded=0;orthogonalLoop=1;jettySize=auto;html=1;exitX=0;exitY=0.5;exitDx=0;exitDy=0;exitPerimeter=0;entryX=0;entryY=0.5;entryDx=0;entryDy=0;" parent="WIyWlLk6GJQsqaUBKTNV-1" source="nSamTNei7Clb74Yu-_tP-47" target="nSamTNei7Clb74Yu-_tP-51" edge="1">
          <mxGeometry relative="1" as="geometry">
            <mxPoint x="40" y="680" as="targetPoint" />
            <Array as="points">
              <mxPoint x="50" y="995" />
              <mxPoint x="50" y="680" />
            </Array>
          </mxGeometry>
        </mxCell>
        <mxCell id="nSamTNei7Clb74Yu-_tP-81" value="False" style="edgeStyle=orthogonalEdgeStyle;rounded=0;orthogonalLoop=1;jettySize=auto;html=1;exitX=0.5;exitY=1;exitDx=0;exitDy=0;exitPerimeter=0;entryX=0.5;entryY=0;entryDx=0;entryDy=0;" parent="WIyWlLk6GJQsqaUBKTNV-1" source="nSamTNei7Clb74Yu-_tP-47" target="nSamTNei7Clb74Yu-_tP-70" edge="1">
          <mxGeometry relative="1" as="geometry" />
        </mxCell>
        <mxCell id="nSamTNei7Clb74Yu-_tP-47" value="while math grade is lover that 0 or higher 10" style="strokeWidth=2;html=1;shape=mxgraph.flowchart.decision;whiteSpace=wrap;" parent="WIyWlLk6GJQsqaUBKTNV-1" vertex="1">
          <mxGeometry x="100" y="930" width="160" height="130" as="geometry" />
        </mxCell>
        <mxCell id="nSamTNei7Clb74Yu-_tP-50" style="edgeStyle=orthogonalEdgeStyle;rounded=0;orthogonalLoop=1;jettySize=auto;html=1;exitX=0.5;exitY=1;exitDx=0;exitDy=0;" parent="WIyWlLk6GJQsqaUBKTNV-1" source="nSamTNei7Clb74Yu-_tP-51" edge="1">
          <mxGeometry relative="1" as="geometry">
            <mxPoint x="160" y="720" as="targetPoint" />
          </mxGeometry>
        </mxCell>
        <mxCell id="nSamTNei7Clb74Yu-_tP-51" value="Do" style="rounded=1;whiteSpace=wrap;html=1;absoluteArcSize=1;arcSize=14;strokeWidth=2;" parent="WIyWlLk6GJQsqaUBKTNV-1" vertex="1">
          <mxGeometry x="140" y="660" width="40" height="40" as="geometry" />
        </mxCell>
        <mxCell id="nSamTNei7Clb74Yu-_tP-52" style="edgeStyle=orthogonalEdgeStyle;rounded=0;orthogonalLoop=1;jettySize=auto;html=1;exitX=0.5;exitY=1;exitDx=0;exitDy=0;entryX=0.5;entryY=0;entryDx=0;entryDy=0;" parent="WIyWlLk6GJQsqaUBKTNV-1" source="nSamTNei7Clb74Yu-_tP-53" target="nSamTNei7Clb74Yu-_tP-56" edge="1">
          <mxGeometry relative="1" as="geometry" />
        </mxCell>
        <mxCell id="nSamTNei7Clb74Yu-_tP-53" value="Enter Science grade message" style="rounded=1;whiteSpace=wrap;html=1;absoluteArcSize=1;arcSize=14;strokeWidth=2;" parent="WIyWlLk6GJQsqaUBKTNV-1" vertex="1">
          <mxGeometry x="90" y="720" width="140" height="30" as="geometry" />
        </mxCell>
        <mxCell id="nSamTNei7Clb74Yu-_tP-54" style="edgeStyle=orthogonalEdgeStyle;rounded=0;orthogonalLoop=1;jettySize=auto;html=1;exitX=0.5;exitY=1;exitDx=0;exitDy=0;exitPerimeter=0;" parent="WIyWlLk6GJQsqaUBKTNV-1" source="nSamTNei7Clb74Yu-_tP-47" target="nSamTNei7Clb74Yu-_tP-47" edge="1">
          <mxGeometry relative="1" as="geometry" />
        </mxCell>
        <mxCell id="nSamTNei7Clb74Yu-_tP-55" style="edgeStyle=orthogonalEdgeStyle;rounded=0;orthogonalLoop=1;jettySize=auto;html=1;exitX=0.5;exitY=1;exitDx=0;exitDy=0;entryX=0.5;entryY=0;entryDx=0;entryDy=0;" parent="WIyWlLk6GJQsqaUBKTNV-1" source="nSamTNei7Clb74Yu-_tP-56" target="nSamTNei7Clb74Yu-_tP-59" edge="1">
          <mxGeometry relative="1" as="geometry" />
        </mxCell>
        <mxCell id="nSamTNei7Clb74Yu-_tP-56" value="user enters grade" style="rounded=1;whiteSpace=wrap;html=1;absoluteArcSize=1;arcSize=14;strokeWidth=2;" parent="WIyWlLk6GJQsqaUBKTNV-1" vertex="1">
          <mxGeometry x="90" y="780" width="170" height="30" as="geometry" />
        </mxCell>
        <mxCell id="nSamTNei7Clb74Yu-_tP-57" value="false" style="edgeStyle=orthogonalEdgeStyle;rounded=0;orthogonalLoop=1;jettySize=auto;html=1;exitX=1;exitY=0.5;exitDx=0;exitDy=0;entryX=0.594;entryY=0;entryDx=0;entryDy=0;entryPerimeter=0;" parent="WIyWlLk6GJQsqaUBKTNV-1" source="nSamTNei7Clb74Yu-_tP-59" target="nSamTNei7Clb74Yu-_tP-61" edge="1">
          <mxGeometry relative="1" as="geometry" />
        </mxCell>
        <mxCell id="nSamTNei7Clb74Yu-_tP-58" value="true" style="edgeStyle=orthogonalEdgeStyle;rounded=0;orthogonalLoop=1;jettySize=auto;html=1;exitX=0.5;exitY=1;exitDx=0;exitDy=0;entryX=0.5;entryY=0;entryDx=0;entryDy=0;entryPerimeter=0;" parent="WIyWlLk6GJQsqaUBKTNV-1" source="nSamTNei7Clb74Yu-_tP-59" target="nSamTNei7Clb74Yu-_tP-47" edge="1">
          <mxGeometry relative="1" as="geometry" />
        </mxCell>
        <mxCell id="nSamTNei7Clb74Yu-_tP-59" value="checkes if grade is whitin paramets" style="rounded=1;whiteSpace=wrap;html=1;absoluteArcSize=1;arcSize=14;strokeWidth=2;" parent="WIyWlLk6GJQsqaUBKTNV-1" vertex="1">
          <mxGeometry x="80" y="840" width="200" height="30" as="geometry" />
        </mxCell>
        <mxCell id="nSamTNei7Clb74Yu-_tP-60" style="edgeStyle=orthogonalEdgeStyle;rounded=0;orthogonalLoop=1;jettySize=auto;html=1;exitX=0.75;exitY=1;exitDx=0;exitDy=0;entryX=1;entryY=0.5;entryDx=0;entryDy=0;entryPerimeter=0;" parent="WIyWlLk6GJQsqaUBKTNV-1" source="nSamTNei7Clb74Yu-_tP-61" target="nSamTNei7Clb74Yu-_tP-47" edge="1">
          <mxGeometry relative="1" as="geometry" />
        </mxCell>
        <mxCell id="nSamTNei7Clb74Yu-_tP-61" value="wrong input message" style="rounded=1;whiteSpace=wrap;html=1;absoluteArcSize=1;arcSize=14;strokeWidth=2;" parent="WIyWlLk6GJQsqaUBKTNV-1" vertex="1">
          <mxGeometry x="300" y="900" width="180" height="30" as="geometry" />
        </mxCell>
        <mxCell id="nSamTNei7Clb74Yu-_tP-64" value="True" style="edgeStyle=orthogonalEdgeStyle;rounded=0;orthogonalLoop=1;jettySize=auto;html=1;exitX=0;exitY=0.5;exitDx=0;exitDy=0;exitPerimeter=0;entryX=0;entryY=0.5;entryDx=0;entryDy=0;" parent="WIyWlLk6GJQsqaUBKTNV-1" source="nSamTNei7Clb74Yu-_tP-66" target="nSamTNei7Clb74Yu-_tP-70" edge="1">
          <mxGeometry relative="1" as="geometry">
            <mxPoint x="70" y="1260" as="targetPoint" />
            <Array as="points">
              <mxPoint x="80" y="1575" />
              <mxPoint x="80" y="1260" />
            </Array>
          </mxGeometry>
        </mxCell>
        <mxCell id="nSamTNei7Clb74Yu-_tP-65" value="False" style="edgeStyle=orthogonalEdgeStyle;rounded=0;orthogonalLoop=1;jettySize=auto;html=1;exitX=0.5;exitY=1;exitDx=0;exitDy=0;exitPerimeter=0;" parent="WIyWlLk6GJQsqaUBKTNV-1" source="nSamTNei7Clb74Yu-_tP-66" edge="1">
          <mxGeometry relative="1" as="geometry">
            <mxPoint x="210" y="1680" as="targetPoint" />
          </mxGeometry>
        </mxCell>
        <mxCell id="nSamTNei7Clb74Yu-_tP-66" value="while math grade is lover that 0 or higher 10" style="strokeWidth=2;html=1;shape=mxgraph.flowchart.decision;whiteSpace=wrap;" parent="WIyWlLk6GJQsqaUBKTNV-1" vertex="1">
          <mxGeometry x="130" y="1510" width="160" height="130" as="geometry" />
        </mxCell>
        <mxCell id="nSamTNei7Clb74Yu-_tP-67" style="edgeStyle=orthogonalEdgeStyle;rounded=0;orthogonalLoop=1;jettySize=auto;html=1;exitX=0.5;exitY=1;exitDx=0;exitDy=0;" parent="WIyWlLk6GJQsqaUBKTNV-1" edge="1">
          <mxGeometry relative="1" as="geometry">
            <mxPoint x="190" y="1240" as="targetPoint" />
            <mxPoint x="190" y="1200" as="sourcePoint" />
          </mxGeometry>
        </mxCell>
        <mxCell id="nSamTNei7Clb74Yu-_tP-69" style="edgeStyle=orthogonalEdgeStyle;rounded=0;orthogonalLoop=1;jettySize=auto;html=1;exitX=0.5;exitY=1;exitDx=0;exitDy=0;" parent="WIyWlLk6GJQsqaUBKTNV-1" source="nSamTNei7Clb74Yu-_tP-70" edge="1">
          <mxGeometry relative="1" as="geometry">
            <mxPoint x="190" y="1300" as="targetPoint" />
          </mxGeometry>
        </mxCell>
        <mxCell id="nSamTNei7Clb74Yu-_tP-70" value="Do" style="rounded=1;whiteSpace=wrap;html=1;absoluteArcSize=1;arcSize=14;strokeWidth=2;" parent="WIyWlLk6GJQsqaUBKTNV-1" vertex="1">
          <mxGeometry x="170" y="1240" width="40" height="40" as="geometry" />
        </mxCell>
        <mxCell id="nSamTNei7Clb74Yu-_tP-71" style="edgeStyle=orthogonalEdgeStyle;rounded=0;orthogonalLoop=1;jettySize=auto;html=1;exitX=0.5;exitY=1;exitDx=0;exitDy=0;entryX=0.5;entryY=0;entryDx=0;entryDy=0;" parent="WIyWlLk6GJQsqaUBKTNV-1" source="nSamTNei7Clb74Yu-_tP-72" target="nSamTNei7Clb74Yu-_tP-75" edge="1">
          <mxGeometry relative="1" as="geometry" />
        </mxCell>
        <mxCell id="nSamTNei7Clb74Yu-_tP-72" value="Enter Math grade message" style="rounded=1;whiteSpace=wrap;html=1;absoluteArcSize=1;arcSize=14;strokeWidth=2;" parent="WIyWlLk6GJQsqaUBKTNV-1" vertex="1">
          <mxGeometry x="120" y="1300" width="140" height="30" as="geometry" />
        </mxCell>
        <mxCell id="nSamTNei7Clb74Yu-_tP-73" style="edgeStyle=orthogonalEdgeStyle;rounded=0;orthogonalLoop=1;jettySize=auto;html=1;exitX=0.5;exitY=1;exitDx=0;exitDy=0;exitPerimeter=0;" parent="WIyWlLk6GJQsqaUBKTNV-1" source="nSamTNei7Clb74Yu-_tP-66" target="nSamTNei7Clb74Yu-_tP-66" edge="1">
          <mxGeometry relative="1" as="geometry" />
        </mxCell>
        <mxCell id="nSamTNei7Clb74Yu-_tP-74" style="edgeStyle=orthogonalEdgeStyle;rounded=0;orthogonalLoop=1;jettySize=auto;html=1;exitX=0.5;exitY=1;exitDx=0;exitDy=0;entryX=0.5;entryY=0;entryDx=0;entryDy=0;" parent="WIyWlLk6GJQsqaUBKTNV-1" source="nSamTNei7Clb74Yu-_tP-75" target="nSamTNei7Clb74Yu-_tP-78" edge="1">
          <mxGeometry relative="1" as="geometry" />
        </mxCell>
        <mxCell id="nSamTNei7Clb74Yu-_tP-75" value="user enters grade" style="rounded=1;whiteSpace=wrap;html=1;absoluteArcSize=1;arcSize=14;strokeWidth=2;" parent="WIyWlLk6GJQsqaUBKTNV-1" vertex="1">
          <mxGeometry x="120" y="1360" width="170" height="30" as="geometry" />
        </mxCell>
        <mxCell id="nSamTNei7Clb74Yu-_tP-76" value="false" style="edgeStyle=orthogonalEdgeStyle;rounded=0;orthogonalLoop=1;jettySize=auto;html=1;exitX=1;exitY=0.5;exitDx=0;exitDy=0;entryX=0.594;entryY=0;entryDx=0;entryDy=0;entryPerimeter=0;" parent="WIyWlLk6GJQsqaUBKTNV-1" source="nSamTNei7Clb74Yu-_tP-78" target="nSamTNei7Clb74Yu-_tP-80" edge="1">
          <mxGeometry relative="1" as="geometry" />
        </mxCell>
        <mxCell id="nSamTNei7Clb74Yu-_tP-77" value="true" style="edgeStyle=orthogonalEdgeStyle;rounded=0;orthogonalLoop=1;jettySize=auto;html=1;exitX=0.5;exitY=1;exitDx=0;exitDy=0;entryX=0.5;entryY=0;entryDx=0;entryDy=0;entryPerimeter=0;" parent="WIyWlLk6GJQsqaUBKTNV-1" source="nSamTNei7Clb74Yu-_tP-78" target="nSamTNei7Clb74Yu-_tP-66" edge="1">
          <mxGeometry relative="1" as="geometry" />
        </mxCell>
        <mxCell id="nSamTNei7Clb74Yu-_tP-78" value="checkes if grade is whitin paramets" style="rounded=1;whiteSpace=wrap;html=1;absoluteArcSize=1;arcSize=14;strokeWidth=2;" parent="WIyWlLk6GJQsqaUBKTNV-1" vertex="1">
          <mxGeometry x="110" y="1420" width="200" height="30" as="geometry" />
        </mxCell>
        <mxCell id="nSamTNei7Clb74Yu-_tP-79" style="edgeStyle=orthogonalEdgeStyle;rounded=0;orthogonalLoop=1;jettySize=auto;html=1;exitX=0.75;exitY=1;exitDx=0;exitDy=0;entryX=1;entryY=0.5;entryDx=0;entryDy=0;entryPerimeter=0;" parent="WIyWlLk6GJQsqaUBKTNV-1" source="nSamTNei7Clb74Yu-_tP-80" target="nSamTNei7Clb74Yu-_tP-66" edge="1">
          <mxGeometry relative="1" as="geometry" />
        </mxCell>
        <mxCell id="nSamTNei7Clb74Yu-_tP-80" value="wrong input message" style="rounded=1;whiteSpace=wrap;html=1;absoluteArcSize=1;arcSize=14;strokeWidth=2;" parent="WIyWlLk6GJQsqaUBKTNV-1" vertex="1">
          <mxGeometry x="330" y="1480" width="180" height="30" as="geometry" />
        </mxCell>
        <mxCell id="nSamTNei7Clb74Yu-_tP-82" value="True" style="edgeStyle=orthogonalEdgeStyle;rounded=0;orthogonalLoop=1;jettySize=auto;html=1;exitX=0;exitY=0.5;exitDx=0;exitDy=0;exitPerimeter=0;entryX=0;entryY=0.5;entryDx=0;entryDy=0;" parent="WIyWlLk6GJQsqaUBKTNV-1" source="nSamTNei7Clb74Yu-_tP-84" target="nSamTNei7Clb74Yu-_tP-88" edge="1">
          <mxGeometry relative="1" as="geometry">
            <mxPoint x="90" y="1700" as="targetPoint" />
            <Array as="points">
              <mxPoint x="100" y="2015" />
              <mxPoint x="100" y="1700" />
            </Array>
          </mxGeometry>
        </mxCell>
        <mxCell id="nSamTNei7Clb74Yu-_tP-83" value="False" style="edgeStyle=orthogonalEdgeStyle;rounded=0;orthogonalLoop=1;jettySize=auto;html=1;exitX=0.5;exitY=1;exitDx=0;exitDy=0;exitPerimeter=0;" parent="WIyWlLk6GJQsqaUBKTNV-1" source="nSamTNei7Clb74Yu-_tP-84" edge="1">
          <mxGeometry relative="1" as="geometry">
            <mxPoint x="230" y="2120" as="targetPoint" />
          </mxGeometry>
        </mxCell>
        <mxCell id="nSamTNei7Clb74Yu-_tP-84" value="while math grade is lover that 0 or higher 10" style="strokeWidth=2;html=1;shape=mxgraph.flowchart.decision;whiteSpace=wrap;" parent="WIyWlLk6GJQsqaUBKTNV-1" vertex="1">
          <mxGeometry x="150" y="1950" width="160" height="130" as="geometry" />
        </mxCell>
        <mxCell id="nSamTNei7Clb74Yu-_tP-85" style="edgeStyle=orthogonalEdgeStyle;rounded=0;orthogonalLoop=1;jettySize=auto;html=1;exitX=0.5;exitY=1;exitDx=0;exitDy=0;" parent="WIyWlLk6GJQsqaUBKTNV-1" edge="1">
          <mxGeometry relative="1" as="geometry">
            <mxPoint x="210" y="1680" as="targetPoint" />
            <mxPoint x="210" y="1640" as="sourcePoint" />
          </mxGeometry>
        </mxCell>
        <mxCell id="nSamTNei7Clb74Yu-_tP-87" style="edgeStyle=orthogonalEdgeStyle;rounded=0;orthogonalLoop=1;jettySize=auto;html=1;exitX=0.5;exitY=1;exitDx=0;exitDy=0;" parent="WIyWlLk6GJQsqaUBKTNV-1" source="nSamTNei7Clb74Yu-_tP-88" edge="1">
          <mxGeometry relative="1" as="geometry">
            <mxPoint x="210" y="1740" as="targetPoint" />
          </mxGeometry>
        </mxCell>
        <mxCell id="nSamTNei7Clb74Yu-_tP-88" value="Do" style="rounded=1;whiteSpace=wrap;html=1;absoluteArcSize=1;arcSize=14;strokeWidth=2;" parent="WIyWlLk6GJQsqaUBKTNV-1" vertex="1">
          <mxGeometry x="190" y="1680" width="40" height="40" as="geometry" />
        </mxCell>
        <mxCell id="nSamTNei7Clb74Yu-_tP-89" style="edgeStyle=orthogonalEdgeStyle;rounded=0;orthogonalLoop=1;jettySize=auto;html=1;exitX=0.5;exitY=1;exitDx=0;exitDy=0;entryX=0.5;entryY=0;entryDx=0;entryDy=0;" parent="WIyWlLk6GJQsqaUBKTNV-1" source="nSamTNei7Clb74Yu-_tP-90" target="nSamTNei7Clb74Yu-_tP-93" edge="1">
          <mxGeometry relative="1" as="geometry" />
        </mxCell>
        <mxCell id="nSamTNei7Clb74Yu-_tP-90" value="Enter Math grade message" style="rounded=1;whiteSpace=wrap;html=1;absoluteArcSize=1;arcSize=14;strokeWidth=2;" parent="WIyWlLk6GJQsqaUBKTNV-1" vertex="1">
          <mxGeometry x="140" y="1740" width="140" height="30" as="geometry" />
        </mxCell>
        <mxCell id="nSamTNei7Clb74Yu-_tP-91" style="edgeStyle=orthogonalEdgeStyle;rounded=0;orthogonalLoop=1;jettySize=auto;html=1;exitX=0.5;exitY=1;exitDx=0;exitDy=0;exitPerimeter=0;" parent="WIyWlLk6GJQsqaUBKTNV-1" source="nSamTNei7Clb74Yu-_tP-84" target="nSamTNei7Clb74Yu-_tP-84" edge="1">
          <mxGeometry relative="1" as="geometry" />
        </mxCell>
        <mxCell id="nSamTNei7Clb74Yu-_tP-92" style="edgeStyle=orthogonalEdgeStyle;rounded=0;orthogonalLoop=1;jettySize=auto;html=1;exitX=0.5;exitY=1;exitDx=0;exitDy=0;entryX=0.5;entryY=0;entryDx=0;entryDy=0;" parent="WIyWlLk6GJQsqaUBKTNV-1" source="nSamTNei7Clb74Yu-_tP-93" target="nSamTNei7Clb74Yu-_tP-96" edge="1">
          <mxGeometry relative="1" as="geometry" />
        </mxCell>
        <mxCell id="nSamTNei7Clb74Yu-_tP-93" value="user enters grade" style="rounded=1;whiteSpace=wrap;html=1;absoluteArcSize=1;arcSize=14;strokeWidth=2;" parent="WIyWlLk6GJQsqaUBKTNV-1" vertex="1">
          <mxGeometry x="140" y="1800" width="170" height="30" as="geometry" />
        </mxCell>
        <mxCell id="nSamTNei7Clb74Yu-_tP-94" value="false" style="edgeStyle=orthogonalEdgeStyle;rounded=0;orthogonalLoop=1;jettySize=auto;html=1;exitX=1;exitY=0.5;exitDx=0;exitDy=0;entryX=0.594;entryY=0;entryDx=0;entryDy=0;entryPerimeter=0;" parent="WIyWlLk6GJQsqaUBKTNV-1" source="nSamTNei7Clb74Yu-_tP-96" target="nSamTNei7Clb74Yu-_tP-98" edge="1">
          <mxGeometry relative="1" as="geometry" />
        </mxCell>
        <mxCell id="nSamTNei7Clb74Yu-_tP-95" value="true" style="edgeStyle=orthogonalEdgeStyle;rounded=0;orthogonalLoop=1;jettySize=auto;html=1;exitX=0.5;exitY=1;exitDx=0;exitDy=0;entryX=0.5;entryY=0;entryDx=0;entryDy=0;entryPerimeter=0;" parent="WIyWlLk6GJQsqaUBKTNV-1" source="nSamTNei7Clb74Yu-_tP-96" target="nSamTNei7Clb74Yu-_tP-84" edge="1">
          <mxGeometry relative="1" as="geometry" />
        </mxCell>
        <mxCell id="nSamTNei7Clb74Yu-_tP-96" value="checkes if grade is whitin paramets" style="rounded=1;whiteSpace=wrap;html=1;absoluteArcSize=1;arcSize=14;strokeWidth=2;" parent="WIyWlLk6GJQsqaUBKTNV-1" vertex="1">
          <mxGeometry x="130" y="1860" width="200" height="30" as="geometry" />
        </mxCell>
        <mxCell id="nSamTNei7Clb74Yu-_tP-97" style="edgeStyle=orthogonalEdgeStyle;rounded=0;orthogonalLoop=1;jettySize=auto;html=1;exitX=0.75;exitY=1;exitDx=0;exitDy=0;entryX=1;entryY=0.5;entryDx=0;entryDy=0;entryPerimeter=0;" parent="WIyWlLk6GJQsqaUBKTNV-1" source="nSamTNei7Clb74Yu-_tP-98" target="nSamTNei7Clb74Yu-_tP-84" edge="1">
          <mxGeometry relative="1" as="geometry" />
        </mxCell>
        <mxCell id="nSamTNei7Clb74Yu-_tP-98" value="wrong input message" style="rounded=1;whiteSpace=wrap;html=1;absoluteArcSize=1;arcSize=14;strokeWidth=2;" parent="WIyWlLk6GJQsqaUBKTNV-1" vertex="1">
          <mxGeometry x="350" y="1920" width="180" height="30" as="geometry" />
        </mxCell>
        <mxCell id="nSamTNei7Clb74Yu-_tP-99" value="Calculate the average of all grades" style="rounded=1;whiteSpace=wrap;html=1;absoluteArcSize=1;arcSize=14;strokeWidth=2;" parent="WIyWlLk6GJQsqaUBKTNV-1" vertex="1">
          <mxGeometry x="120" y="2120" width="220" height="20" as="geometry" />
        </mxCell>
        <mxCell id="CXZ9IeghAJyvjHOX5ytz-9" style="edgeStyle=orthogonalEdgeStyle;rounded=0;orthogonalLoop=1;jettySize=auto;html=1;exitX=0.5;exitY=1;exitDx=0;exitDy=0;entryX=0.5;entryY=0;entryDx=0;entryDy=0;" edge="1" parent="WIyWlLk6GJQsqaUBKTNV-1" source="nSamTNei7Clb74Yu-_tP-102" target="CXZ9IeghAJyvjHOX5ytz-8">
          <mxGeometry relative="1" as="geometry" />
        </mxCell>
        <mxCell id="nSamTNei7Clb74Yu-_tP-102" value="Print the student&#39;s final grade" style="rounded=1;whiteSpace=wrap;html=1;absoluteArcSize=1;arcSize=14;strokeWidth=2;" parent="WIyWlLk6GJQsqaUBKTNV-1" vertex="1">
          <mxGeometry x="122.5" y="2338" width="215" height="30" as="geometry" />
        </mxCell>
        <mxCell id="CXZ9IeghAJyvjHOX5ytz-3" value="yes" style="edgeStyle=orthogonalEdgeStyle;rounded=0;orthogonalLoop=1;jettySize=auto;html=1;exitX=0.5;exitY=1;exitDx=0;exitDy=0;exitPerimeter=0;entryX=0.5;entryY=0;entryDx=0;entryDy=0;" edge="1" parent="WIyWlLk6GJQsqaUBKTNV-1" source="CXZ9IeghAJyvjHOX5ytz-0" target="nSamTNei7Clb74Yu-_tP-102">
          <mxGeometry relative="1" as="geometry" />
        </mxCell>
        <mxCell id="CXZ9IeghAJyvjHOX5ytz-4" value="no" style="edgeStyle=orthogonalEdgeStyle;rounded=0;orthogonalLoop=1;jettySize=auto;html=1;exitX=1;exitY=0.5;exitDx=0;exitDy=0;exitPerimeter=0;entryX=0.5;entryY=0;entryDx=0;entryDy=0;" edge="1" parent="WIyWlLk6GJQsqaUBKTNV-1" source="CXZ9IeghAJyvjHOX5ytz-0" target="CXZ9IeghAJyvjHOX5ytz-1">
          <mxGeometry relative="1" as="geometry" />
        </mxCell>
        <mxCell id="CXZ9IeghAJyvjHOX5ytz-0" value="Decive if the grade is below or above 3" style="strokeWidth=2;html=1;shape=mxgraph.flowchart.decision;whiteSpace=wrap;" vertex="1" parent="WIyWlLk6GJQsqaUBKTNV-1">
          <mxGeometry x="180" y="2190" width="100" height="100" as="geometry" />
        </mxCell>
        <mxCell id="CXZ9IeghAJyvjHOX5ytz-6" style="edgeStyle=orthogonalEdgeStyle;rounded=0;orthogonalLoop=1;jettySize=auto;html=1;exitX=0.5;exitY=1;exitDx=0;exitDy=0;" edge="1" parent="WIyWlLk6GJQsqaUBKTNV-1" source="CXZ9IeghAJyvjHOX5ytz-1" target="CXZ9IeghAJyvjHOX5ytz-7">
          <mxGeometry relative="1" as="geometry">
            <mxPoint x="580" y="2520" as="targetPoint" />
          </mxGeometry>
        </mxCell>
        <mxCell id="CXZ9IeghAJyvjHOX5ytz-1" value="Print the student&#39;s final grade" style="rounded=1;whiteSpace=wrap;html=1;absoluteArcSize=1;arcSize=14;strokeWidth=2;" vertex="1" parent="WIyWlLk6GJQsqaUBKTNV-1">
          <mxGeometry x="480" y="2330" width="180" height="30" as="geometry" />
        </mxCell>
        <mxCell id="CXZ9IeghAJyvjHOX5ytz-2" style="edgeStyle=orthogonalEdgeStyle;rounded=0;orthogonalLoop=1;jettySize=auto;html=1;exitX=0.5;exitY=1;exitDx=0;exitDy=0;entryX=0.5;entryY=0;entryDx=0;entryDy=0;entryPerimeter=0;" edge="1" parent="WIyWlLk6GJQsqaUBKTNV-1" source="nSamTNei7Clb74Yu-_tP-99" target="CXZ9IeghAJyvjHOX5ytz-0">
          <mxGeometry relative="1" as="geometry" />
        </mxCell>
        <mxCell id="CXZ9IeghAJyvjHOX5ytz-7" value="the student has a failing grade" style="rounded=1;whiteSpace=wrap;html=1;absoluteArcSize=1;arcSize=14;strokeWidth=2;" vertex="1" parent="WIyWlLk6GJQsqaUBKTNV-1">
          <mxGeometry x="530" y="2440" width="100" height="100" as="geometry" />
        </mxCell>
        <mxCell id="CXZ9IeghAJyvjHOX5ytz-8" value="the student has a passing grade" style="rounded=1;whiteSpace=wrap;html=1;absoluteArcSize=1;arcSize=14;strokeWidth=2;" vertex="1" parent="WIyWlLk6GJQsqaUBKTNV-1">
          <mxGeometry x="200" y="2450" width="100" height="100" as="geometry" />
        </mxCell>
      </root>
    </mxGraphModel>
  </diagram>
</mxfile>
